<svg width="24" height="26" viewBox="0 0 24 26" fill="none" xmlns="http://www.w3.org/2000/svg">
<path d="M16.0981 9.37646C14.1665 7.48552 11.1015 7.48552 9.17923 9.37646C7.26637 11.2987 7.30081 14.4263 9.20115 16.3485C11.1015 18.2708 14.2165 18.2927 16.1294 16.3705C16.1607 16.3392 16.2953 16.1951 16.5395 15.9353L14.2385 13.6123C14.0099 13.8941 13.8722 14.0381 13.8596 14.0381C13.2085 14.6893 12.1565 14.6893 11.5053 14.0381C10.8542 13.3869 10.8542 12.3225 11.4834 11.6838C12.1127 11.0545 13.1678 11.0545 13.8252 11.7057C13.8252 11.7057 15.8852 13.7657 19.9927 17.8951C18.3021 20.3465 15.4688 21.8962 12.4195 21.8962C7.36968 21.8962 3.26533 17.7574 3.26533 12.6449C3.26533 7.53248 7.37282 3.39994 12.4195 3.39994C15.3686 3.39994 18.0767 4.82128 19.7579 7.14427C19.4855 7.45734 18.7936 8.25254 17.676 9.52987L19.9551 11.809L23.7308 7.53248C21.7647 3.08374 17.3566 0.131485 12.407 0.131485C5.56014 0.131485 0 5.74484 0 12.6512C0 19.5575 5.54761 25.1834 12.407 25.1834C15.522 25.1834 18.1049 24.1972 20.6251 22.037C22.9136 20.0835 24 17.366 24 17.366L16.0981 9.37646Z" fill="url(#paint0_linear_1_135)"/>
<defs>
<linearGradient id="paint0_linear_1_135" x1="25.2438" y1="24.2213" x2="-5.04877" y2="-5.35003" gradientUnits="userSpaceOnUse">
<stop stop-color="#DB24E2"/>
<stop offset="1" stop-color="#4B17F5"/>
</linearGradient>
</defs>
</svg>
